PathFileType	4	(X/Y/Z)	 s05c0302.trc
DataRate	CameraRate	NumFrames	NumMarkers	Units	OrigDataRate	OrigDataStartFrame	OrigNumFrames
200	200	4	49	mm	200	1751	2000
Frame#	Time	racr			lacr			c7			jug			rlel			rdr			llel			ldr			s2			lic			ric			lasi			rasi			rpsi			lpsi			rgt			lgt			rth1			rth2			rth3			rth4			rlfc			rsh1			rsh2			rsh3			rsh4			rlmal			rmmal			rcal			rtoe			rmt5			lth1			lth2			lth4			lth3			llfc			lmfc			lsh1			lsh2			lsh3			lsh4			llmal			lmmal			lcal			ltoe			lmt5			SBIKE			LBIKE			RBIKE			
		X1	Y1	Z1	X2	Y2	Z2	X3	Y3	Z3	X4	Y4	Z4	X5	Y5	Z5	X6	Y6	Z6	X7	Y7	Z7	X8	Y8	Z8	X9	Y9	Z9	X10	Y10	Z10	X11	Y11	Z11	X12	Y12	Z12	X13	Y13	Z13	X14	Y14	Z14	X15	Y15	Z15	X16	Y16	Z16	X17	Y17	Z17	X18	Y18	Z18	X19	Y19	Z19	X20	Y20	Z20	X21	Y21	Z21	X22	Y22	Z22	X23	Y23	Z23	X24	Y24	Z24	X25	Y25	Z25	X26	Y26	Z26	X27	Y27	Z27	X28	Y28	Z28	X29	Y29	Z29	X30	Y30	Z30	X31	Y31	Z31	X32	Y32	Z32	X33	Y33	Z33	X34	Y34	Z34	X35	Y35	Z35	X36	Y36	Z36	X37	Y37	Z37	X38	Y38	Z38	X39	Y39	Z39	X40	Y40	Z40	X41	Y41	Z41	X42	Y42	Z42	X43	Y43	Z43	X44	Y44	Z44	X45	Y45	Z45	X46	Y46	Z46	X47	Y47	Z47	X48	Y48	Z48	X49	Y49	Z49	
1751	8.7550	433.532999	1372.953679	-128.024183	430.505639	1379.879126	-391.356110	409.901360	1457.496572	-263.618706	374.696106	1301.295267	-261.708723	537.314985	1131.376713	-42.710233	697.326813	918.415018	-82.543561	527.422235	1131.256454	-486.932175	701.918436	922.951541	-442.562518	-116.243762	1154.664155	-268.904162	31.244667	1179.579040	-405.780771	20.884036	1199.093637	-123.003238	83.117896	1132.356976	-368.043036	69.023917	1142.326425	-147.749846	-89.288844	1206.522576	-226.194630	-82.377481	1206.249831	-313.751352	-10.600815	1067.300310	-90.135227	-21.138703	1065.657500	-431.324662	97.424143	1020.413502	-73.710128	185.943281	1012.131015	-67.195775	256.777482	959.660307	-66.552102	198.869801	1044.604048	-79.195571	397.427046	890.034759	-86.514301	341.789057	794.282977	-67.784684	333.639876	706.733164	-82.492970	286.347274	636.041918	-89.276852	363.785296	700.725782	-107.021851	242.903377	511.298284	-104.196768	260.009409	541.930444	-181.716410	171.336351	486.746756	-153.626186	460.632532	426.041658	-147.248310	356.898004	416.720053	-83.539229	72.247590	952.527465	-447.606391	145.673264	907.703606	-442.984930	171.745058	930.392296	-428.607116	187.129835	827.254644	-440.900256	263.821459	703.487693	-407.764411	246.627465	692.023065	-300.225531	173.427972	615.719393	-437.480286	139.519603	535.249975	-428.647337	68.576765	481.823219	-431.017032	164.669535	517.805203	-405.469814	1.138748	390.178954	-426.839651	35.948889	398.425678	-353.265603	-72.513821	377.795672	-386.329952	171.263004	213.029287	-396.428520	64.873933	246.296415	-457.699002	-168.458994	901.947394	-266.120268	-43.683967	84.917091	-474.690153	-51.832265	80.148633	-77.189077	
1752	8.7600	433.631940	1372.860621	-128.570508	430.401166	1379.826762	-391.989790	409.810855	1457.445233	-264.146461	374.615555	1301.279967	-262.259510	537.539823	1131.357596	-43.356413	697.441302	918.224932	-82.658419	527.257258	1131.159146	-487.346556	701.884189	923.003645	-442.519831	-116.289420	1154.586292	-268.689808	30.879031	1179.705776	-405.591691	21.268938	1198.723170	-122.739969	82.872853	1132.457450	-368.006689	69.211390	1141.895735	-147.475997	-89.197064	1206.120786	-225.254213	-82.556692	1206.175077	-313.256506	-10.609949	1066.119100	-90.223845	-21.136401	1065.819417	-431.192504	97.044749	1017.633796	-73.326051	185.505136	1007.841967	-66.811972	255.453716	954.069693	-66.624690	198.906620	1040.210015	-78.611962	395.215943	883.426963	-86.693877	340.713967	786.806587	-67.796867	333.769438	699.234197	-82.577232	287.241751	627.919701	-89.337467	363.875291	693.512318	-107.105441	245.653096	502.739348	-104.241906	262.449776	533.562065	-181.727394	174.660690	477.447226	-153.874525	464.095826	419.592017	-147.291225	360.437834	409.242109	-83.549920	73.286521	953.294974	-447.371721	147.248094	909.403612	-442.697963	173.009349	932.415352	-428.333337	189.645562	829.446780	-440.512414	267.329676	706.447745	-407.618953	250.097599	695.026894	-299.916394	175.658089	620.157728	-437.089328	140.383636	540.319186	-428.439291	68.461067	488.204378	-430.789279	165.454007	522.511032	-405.569883	-0.915096	397.910841	-426.771412	34.119126	405.784759	-353.081031	-74.848483	386.318636	-386.261486	167.396356	219.347435	-396.383774	61.350165	253.609304	-457.629303	-168.587672	901.962442	-266.200064	-43.683163	84.949159	-474.717979	-51.824323	80.128655	-77.211590	
1753	8.7650	433.744669	1372.778022	-129.125456	430.253859	1379.775650	-392.672715	409.745980	1457.436546	-264.692945	374.603265	1301.272533	-262.796146	537.794653	1131.306196	-44.014313	697.556369	918.036710	-82.798292	527.091901	1131.033449	-487.795077	701.858417	923.078016	-442.540015	-116.367008	1154.315218	-268.330114	30.444067	1179.732573	-405.313420	21.695393	1198.343754	-122.445107	82.607657	1132.565942	-367.937087	69.466113	1141.338790	-147.219829	-89.043094	1205.885951	-224.678094	-82.715770	1206.136561	-312.752095	-10.566468	1065.033287	-90.259111	-21.118341	1065.969015	-431.029495	96.618017	1014.671862	-72.858671	185.001971	1003.365303	-66.442089	254.024021	948.355407	-66.717612	198.933313	1035.675631	-78.023119	392.981875	876.052515	-87.355505	339.389476	779.203685	-67.833817	333.543903	691.536409	-82.690989	288.033046	619.600928	-89.458796	363.798092	686.198561	-107.287770	248.076716	493.882520	-104.494258	264.674012	525.366666	-182.211773	176.769966	468.458253	-153.618368	467.150036	413.022521	-147.281421	363.640923	401.713471	-83.536920	74.361925	954.132004	-447.121859	148.859354	911.169647	-442.400387	174.369125	934.524686	-428.042118	192.281190	831.832681	-440.201443	270.996521	709.469595	-407.294199	253.671514	698.241959	-299.594805	178.293032	624.688780	-436.790738	141.517186	545.535459	-428.226315	68.669910	494.684564	-430.612819	165.818737	527.091206	-404.914995	-2.521942	405.703700	-426.733646	32.321501	413.462073	-352.812653	-76.806119	394.963084	-386.171289	163.933473	225.793204	-396.462170	58.198861	261.063114	-457.635520	-168.658873	901.959638	-266.282765	-43.667742	84.978185	-474.724494	-51.849635	80.158511	-77.193723	
1754	8.7700	433.846563	1372.666005	-129.685533	430.082472	1379.735639	-393.373814	409.656959	1457.364652	-265.237469	374.654073	1301.186423	-263.351714	538.042852	1131.273991	-44.599033	697.704720	917.872865	-82.914216	526.882246	1130.850753	-488.279677	701.851338	923.155476	-442.537543	-116.453595	1154.207441	-268.071256	30.087634	1179.819775	-405.121732	22.244734	1197.894294	-122.123345	82.368616	1132.606380	-367.844170	69.798663	1140.876647	-146.980496	-88.810757	1205.618511	-223.909211	-82.874221	1206.105883	-312.252816	-10.522851	1063.833204	-90.253486	-21.078990	1066.113860	-430.848708	96.436566	1011.517834	-72.515196	184.474770	998.797559	-66.139075	252.647110	942.718447	-66.753248	198.957966	1030.952701	-77.430435	390.580472	868.885676	-87.711349	337.850179	771.428608	-67.905566	333.092398	683.628749	-82.861350	288.489778	611.140863	-89.575040	363.279462	678.684440	-107.504037	249.972151	485.215150	-104.590166	266.037517	516.528376	-181.796814	178.935140	459.179072	-153.620082	469.819146	406.325032	-147.310887	366.436262	394.169290	-83.513789	75.461685	955.021515	-446.917876	150.538524	913.045008	-442.160087	175.707153	936.742233	-427.823207	194.995257	834.254096	-439.810992	274.722917	712.664041	-407.136460	257.270122	701.628367	-299.349556	180.916682	629.082453	-436.028320	142.908246	550.809695	-428.010348	69.186109	501.206236	-430.466532	166.886146	531.937337	-404.642169	-3.766850	413.635121	-426.660582	31.362634	420.805328	-352.667782	-78.306679	403.613034	-386.091847	160.850609	232.249853	-396.406368	55.438383	268.539585	-457.553296	-168.775293	901.941285	-266.315921	-43.675611	84.984869	-474.702255	-51.827251	80.141808	-77.198204	
